<svg width="18" height="21" viewBox="0 0 18 21" fill="none" xmlns="http://www.w3.org/2000/svg">
<path d="M13.7812 7.75H16.3125V20.4062" stroke="#616266" stroke-opacity="0.3" stroke-linejoin="round"/>
<path d="M4.5 10.8438H1.96875V20.4062" stroke="#616266" stroke-opacity="0.3" stroke-linejoin="round"/>
<path d="M13.5625 2.625H5V20.1875H13.5625V2.625Z" stroke="#616266" stroke-opacity="0.3" stroke-linejoin="round"/>
<path d="M0 20.1875H18" stroke="#616266" stroke-opacity="0.3"/>
<path d="M5.90625 2.40625V1H12.375V2.40625" stroke="#616266" stroke-opacity="0.3" stroke-linejoin="round"/>
<path d="M8.125 4.125H5.9375V6.3125H8.125V4.125Z" stroke="#616266" stroke-opacity="0.3" stroke-width="0.5" stroke-linejoin="round"/>
<path d="M8.125 8.0625H5.9375V10.25H8.125V8.0625Z" stroke="#616266" stroke-opacity="0.3" stroke-width="0.5" stroke-linejoin="round"/>
<path d="M8.125 12H5.9375V14.1875H8.125V12Z" stroke="#616266" stroke-opacity="0.3" stroke-width="0.5" stroke-linejoin="round"/>
<path d="M12.0625 4.125H9.875V6.3125H12.0625V4.125Z" stroke="#616266" stroke-opacity="0.3" stroke-width="0.5" stroke-linejoin="round"/>
<path d="M12.0625 8.0625H9.875V10.25H12.0625V8.0625Z" stroke="#616266" stroke-opacity="0.3" stroke-width="0.5" stroke-linejoin="round"/>
<path d="M12.0625 12H9.875V14.1875H12.0625V12Z" stroke="#616266" stroke-opacity="0.3" stroke-width="0.5" stroke-linejoin="round"/>
<path d="M10.625 17.375H7.375V20.25H10.625V17.375Z" stroke="#616266" stroke-opacity="0.3" stroke-linejoin="round"/>
</svg>
